
<svg width="120" height="120" xmlns="http://www.w3.org/2000/svg">
  <defs>
    <pattern id="grid" width="120" height="120" patternUnits="userSpaceOnUse">
      <path d="M 10 0 L 10 120 M 30 0 L 30 120 M 50 0 L 50 120 M 70 0 L 70 120 M 90 0 L 90 120 M 110 0 L 110 120" stroke="white" stroke-width="0.5" fill="none" />
      <path d="M 0 10 L 120 10 M 0 30 L 120 30 M 0 50 L 120 50 M 0 70 L 120 70 M 0 90 L 120 90 M 0 110 L 120 110" stroke="white" stroke-width="0.5" fill="none" />
      
      <!-- Circuit Elements -->
      <circle cx="10" cy="10" r="2" fill="white" />
      <circle cx="50" cy="50" r="2" fill="white" />
      <circle cx="90" cy="90" r="2" fill="white" />
      <circle cx="30" cy="70" r="2" fill="white" />
      <circle cx="70" cy="30" r="2" fill="white" />
      
      <path d="M 10 10 L 30 10 L 30 30" stroke="white" stroke-width="1" fill="none" />
      <path d="M 50 50 L 70 50 L 70 70" stroke="white" stroke-width="1" fill="none" />
      <path d="M 30 70 L 50 70 L 50 90" stroke="white" stroke-width="1" fill="none" />
      <path d="M 70 30 L 90 30 L 90 50" stroke="white" stroke-width="1" fill="none" />
      <path d="M 90 90 L 90 110 L 70 110" stroke="white" stroke-width="1" fill="none" />
    </pattern>
  </defs>
  <rect width="100%" height="100%" fill="url(#grid)" />
</svg>
